<svg id="Layer_1" data-name="Layer 1" xmlns="http://www.w3.org/2000/svg" viewBox="0 0 172.34 27.96"><title>dds-logo</title><path d="M15.35,25.42a.92.92,0,0,1-.95-.68l-.3-1.5a8.54,8.54,0,0,1-1,1,7.29,7.29,0,0,1-1.14.76,5.79,5.79,0,0,1-1.32.49,6.16,6.16,0,0,1-1.52.17A5,5,0,0,1,5,23.57a7.38,7.38,0,0,1-1.18-2.49,12.48,12.48,0,0,1-.42-3.39,10.69,10.69,0,0,1,.47-3.21,7.59,7.59,0,0,1,1.35-2.57,6.29,6.29,0,0,1,2.11-1.7A6.08,6.08,0,0,1,10,9.6a5.38,5.38,0,0,1,2.23.42,5.84,5.84,0,0,1,1.65,1.11V2.92h3.74V25.43H15.35Zm-5-2.74a3.73,3.73,0,0,0,2-.49,5.62,5.62,0,0,0,1.54-1.38v-7a3.59,3.59,0,0,0-1.39-1.09,4.13,4.13,0,0,0-1.61-.32,3.66,3.66,0,0,0-1.54.32,3,3,0,0,0-1.17,1,4.6,4.6,0,0,0-.73,1.64,9.44,9.44,0,0,0-.26,2.34A10.16,10.16,0,0,0,7.41,20,4.58,4.58,0,0,0,8,21.54a2.34,2.34,0,0,0,1,.86A3,3,0,0,0,10.37,22.68Z" transform="translate(-3.35 -2.92)" style="fill:#fff"/><path d="M27.31,9.64a7.58,7.58,0,0,1,2.7.47,6,6,0,0,1,2.13,1.37,6.17,6.17,0,0,1,1.39,2.21,8.4,8.4,0,0,1,.5,3,4.55,4.55,0,0,1,0,.7,1,1,0,0,1-.14.44.55.55,0,0,1-.27.23,1,1,0,0,1-.42.07h-9.6a5.3,5.3,0,0,0,1.29,3.51,4,4,0,0,0,3,1.12,5.19,5.19,0,0,0,1.57-.21,7.41,7.41,0,0,0,1.15-.47c.33-.17.62-.33.86-.47a1.45,1.45,0,0,1,.72-.21.8.8,0,0,1,.39.09.89.89,0,0,1,.29.26l1.09,1.36a6.41,6.41,0,0,1-1.39,1.22,7.75,7.75,0,0,1-1.61.79,8.54,8.54,0,0,1-1.71.42,12.33,12.33,0,0,1-1.69.12,8.22,8.22,0,0,1-3-.54,6.71,6.71,0,0,1-2.42-1.59,7.32,7.32,0,0,1-1.62-2.61,10.18,10.18,0,0,1-.59-3.6,8.43,8.43,0,0,1,.52-3,7.36,7.36,0,0,1,1.48-2.44,6.85,6.85,0,0,1,2.35-1.64A7.74,7.74,0,0,1,27.31,9.64Zm.08,2.68a3.49,3.49,0,0,0-2.56.92,4.53,4.53,0,0,0-1.18,2.62h7a4.73,4.73,0,0,0-.2-1.37,3,3,0,0,0-.61-1.13,3,3,0,0,0-1-.77A3.57,3.57,0,0,0,27.39,12.32Z" transform="translate(-3.35 -2.92)" style="fill:#fff"/><path d="M45.52,12.91a1,1,0,0,1-.32.34.77.77,0,0,1-.42.1,1.32,1.32,0,0,1-.58-.15l-.72-.34a5.87,5.87,0,0,0-.93-.34,4.5,4.5,0,0,0-1.23-.15,2.88,2.88,0,0,0-1.74.47,1.47,1.47,0,0,0-.64,1.23,1.17,1.17,0,0,0,.33.84,2.85,2.85,0,0,0,.86.6,7.79,7.79,0,0,0,1.22.46l1.39.45c.47.16.94.35,1.39.55a5,5,0,0,1,1.22.79,3.49,3.49,0,0,1,1.19,2.74,5.2,5.2,0,0,1-.41,2.07,4.5,4.5,0,0,1-1.2,1.64,5.55,5.55,0,0,1-2,1.08,8.32,8.32,0,0,1-2.66.39,9,9,0,0,1-1.57-.14,9.93,9.93,0,0,1-1.47-.4,7.4,7.4,0,0,1-1.3-.61,5.66,5.66,0,0,1-1-.76l.86-1.42a1.21,1.21,0,0,1,.39-.39,1.11,1.11,0,0,1,.58-.14,1.22,1.22,0,0,1,.66.2l.72.42a6.26,6.26,0,0,0,1,.42,4.24,4.24,0,0,0,1.4.2,3.48,3.48,0,0,0,1.14-.16,2.37,2.37,0,0,0,.79-.42,1.44,1.44,0,0,0,.45-.6,1.9,1.9,0,0,0,.14-.7,1.24,1.24,0,0,0-.33-.89,3.05,3.05,0,0,0-.86-.61,7.93,7.93,0,0,0-1.23-.46l-1.41-.45a12.23,12.23,0,0,1-1.41-.57,4.75,4.75,0,0,1-1.23-.83,3.54,3.54,0,0,1-.86-1.23,4.22,4.22,0,0,1-.33-1.76,4.53,4.53,0,0,1,.38-1.82,4.2,4.2,0,0,1,1.11-1.51,5.57,5.57,0,0,1,1.83-1,7.57,7.57,0,0,1,2.54-.39,7.82,7.82,0,0,1,2.92.53,6.68,6.68,0,0,1,2.2,1.39Z" transform="translate(-3.35 -2.92)" style="fill:#fff"/><path d="M53.29,5.35a2.16,2.16,0,0,1-.2.91A2.46,2.46,0,0,1,51.8,7.51a2.29,2.29,0,0,1-.94.19,2.23,2.23,0,0,1-.92-.19A2.49,2.49,0,0,1,49.19,7a2.57,2.57,0,0,1-.51-.74,2.15,2.15,0,0,1-.19-.91,2.29,2.29,0,0,1,.19-.94,2.54,2.54,0,0,1,.51-.76,2.49,2.49,0,0,1,.75-.51A2.2,2.2,0,0,1,50.86,3a2.29,2.29,0,0,1,.94.19,2.52,2.52,0,0,1,.77.51,2.28,2.28,0,0,1,.52.76A2.33,2.33,0,0,1,53.29,5.35Zm-.56,4.53V25.42H49V9.88Z" transform="translate(-3.35 -2.92)" style="fill:#fff"/><path d="M61.54,9.61a8.67,8.67,0,0,1,1.88.2,6.7,6.7,0,0,1,1.61.6H69.5V11.8a.81.81,0,0,1-.18.55,1,1,0,0,1-.62.27l-1.39.26a4.41,4.41,0,0,1,.23.83,5,5,0,0,1-.38,3,4.65,4.65,0,0,1-1.27,1.58,6,6,0,0,1-1.92,1,7.82,7.82,0,0,1-2.42.36,8,8,0,0,1-1.71-.17,1.24,1.24,0,0,0-.73,1,.71.71,0,0,0,.43.69,3.46,3.46,0,0,0,1.14.31,12.71,12.71,0,0,0,1.6.09c.6,0,1.21,0,1.83.08a13.67,13.67,0,0,1,1.83.27,5.54,5.54,0,0,1,1.6.6,3.22,3.22,0,0,1,1.14,1.12,3.43,3.43,0,0,1,.43,1.82,4.29,4.29,0,0,1-.51,2,5.33,5.33,0,0,1-1.47,1.73,7.61,7.61,0,0,1-2.36,1.22,10,10,0,0,1-3.18.46,12,12,0,0,1-3.07-.34,7.2,7.2,0,0,1-2.16-.91,4,4,0,0,1-1.28-1.31,3.11,3.11,0,0,1-.42-1.54A2.6,2.6,0,0,1,55.33,25a4.55,4.55,0,0,1,1.85-1.18,2.51,2.51,0,0,1-.92-.85,2.47,2.47,0,0,1-.35-1.38,2.36,2.36,0,0,1,.12-.72,2.65,2.65,0,0,1,.37-.73A4,4,0,0,1,57,19.4a4.14,4.14,0,0,1,.89-.58,4.85,4.85,0,0,1-1.86-1.7,4.51,4.51,0,0,1-.67-2.48,4.57,4.57,0,0,1,.46-2.08A4.72,4.72,0,0,1,57.14,11a6,6,0,0,1,2-1A8.24,8.24,0,0,1,61.54,9.61Zm4.11,16.46a1.09,1.09,0,0,0-.27-.76,1.77,1.77,0,0,0-.74-.46,5.14,5.14,0,0,0-1.1-.24,11.19,11.19,0,0,0-1.33-.08H60.76a5.81,5.81,0,0,1-1.45-.17,3.4,3.4,0,0,0-1,.83,1.68,1.68,0,0,0-.39,1.1,1.54,1.54,0,0,0,.2.76,1.67,1.67,0,0,0,.65.61,3.73,3.73,0,0,0,1.16.4,9.56,9.56,0,0,0,1.74.14,8.52,8.52,0,0,0,1.8-.16,4.43,4.43,0,0,0,1.25-.45,1.9,1.9,0,0,0,.72-.68A1.63,1.63,0,0,0,65.65,26.07Zm-4.11-8.8a3.42,3.42,0,0,0,1.21-.19,2.54,2.54,0,0,0,.86-.52,2.17,2.17,0,0,0,.52-.8,2.86,2.86,0,0,0,.17-1,2.44,2.44,0,0,0-.69-1.83,2.85,2.85,0,0,0-2.07-.67,2.89,2.89,0,0,0-2.07.67,2.43,2.43,0,0,0-.69,1.83,3,3,0,0,0,.17,1,2.3,2.3,0,0,0,.52.81,2.41,2.41,0,0,0,.86.53A3.53,3.53,0,0,0,61.54,17.27Z" transform="translate(-3.35 -2.92)" style="fill:#fff"/><path d="M71.06,25.42V9.88h2.29a.92.92,0,0,1,1,.68l.26,1.23a8.2,8.2,0,0,1,1-.88,7,7,0,0,1,1.11-.68,5.79,5.79,0,0,1,1.25-.44,6.59,6.59,0,0,1,1.45-.15,5.56,5.56,0,0,1,2.26.43,4.44,4.44,0,0,1,1.64,1.21,5.36,5.36,0,0,1,1,1.86,7.84,7.84,0,0,1,.34,2.39v9.89H80.86V15.53a3.3,3.3,0,0,0-.66-2.2,2.45,2.45,0,0,0-2-.78A3.94,3.94,0,0,0,76.4,13a6.37,6.37,0,0,0-1.61,1.2V25.43H71.06Z" transform="translate(-3.35 -2.92)" style="fill:#fff"/><path d="M101.3,12.23a.35.35,0,0,1-.33.21.77.77,0,0,1-.43-.19,5.59,5.59,0,0,0-.7-.42,5.08,5.08,0,0,0-1.06-.42,5.26,5.26,0,0,0-1.54-.19,4.7,4.7,0,0,0-1.49.23,3.63,3.63,0,0,0-1.15.63,2.78,2.78,0,0,0-.74.91,2.35,2.35,0,0,0-.27,1.1A1.88,1.88,0,0,0,94,15.27a3.13,3.13,0,0,0,1,.8,7.2,7.2,0,0,0,1.34.57l1.54.48c.53.16,1,.34,1.54.54a5.92,5.92,0,0,1,1.34.73,3.56,3.56,0,0,1,1,1.08A3.08,3.08,0,0,1,102,21a4.6,4.6,0,0,1-.36,1.83,4.12,4.12,0,0,1-1,1.47,4.93,4.93,0,0,1-1.66,1,6.5,6.5,0,0,1-2.24.36A6.73,6.73,0,0,1,94,25.14a7.66,7.66,0,0,1-2.06-1.33l.35-.52a.59.59,0,0,1,.17-.18.48.48,0,0,1,.26-.06.82.82,0,0,1,.48.24,5.31,5.31,0,0,0,.75.52,5.94,5.94,0,0,0,1.15.52,5.26,5.26,0,0,0,1.71.24,5.07,5.07,0,0,0,1.68-.26,3.51,3.51,0,0,0,1.21-.72,2.92,2.92,0,0,0,.73-1.07,3.53,3.53,0,0,0,.25-1.29,2.13,2.13,0,0,0-.36-1.26,3.06,3.06,0,0,0-1-.85A6.6,6.6,0,0,0,98,18.53l-1.54-.48c-.53-.16-1-.34-1.54-.53a5.23,5.23,0,0,1-1.34-.73,3.64,3.64,0,0,1-1-1.07,3.12,3.12,0,0,1-.36-1.57,3.58,3.58,0,0,1,.35-1.54,3.88,3.88,0,0,1,1-1.3,4.88,4.88,0,0,1,1.57-.89,6.16,6.16,0,0,1,2.07-.33,6.92,6.92,0,0,1,2.45.4,6,6,0,0,1,2,1.22Z" transform="translate(-3.35 -2.92)" style="fill:#bfc4c8"/><path d="M108.53,30.27a1.12,1.12,0,0,1-.23.35.61.61,0,0,1-.42.14h-1l2.65-5.89-6.38-14.51h1.2a.57.57,0,0,1,.36.11.64.64,0,0,1,.19.25l5.07,11.72c.06.15.11.3.16.46s.09.32.13.48c0-.16.1-.32.16-.48s.11-.31.17-.46l5-11.72a.71.71,0,0,1,.21-.27.47.47,0,0,1,.3-.1h1.11Z" transform="translate(-3.35 -2.92)" style="fill:#bfc4c8"/><path d="M127.5,12.23a.35.35,0,0,1-.33.21.77.77,0,0,1-.43-.19,5.59,5.59,0,0,0-.7-.42,5.08,5.08,0,0,0-1.06-.42,5.26,5.26,0,0,0-1.54-.19,4.7,4.7,0,0,0-1.49.23,3.84,3.84,0,0,0-1.15.63,2.78,2.78,0,0,0-.74.91,2.35,2.35,0,0,0-.27,1.1,1.88,1.88,0,0,0,.36,1.18,3.13,3.13,0,0,0,.95.8,7.2,7.2,0,0,0,1.34.57l1.54.48c.52.16,1,.34,1.54.54a5.92,5.92,0,0,1,1.34.73,3.4,3.4,0,0,1,1,1.08,3.08,3.08,0,0,1,.36,1.54,4.6,4.6,0,0,1-.36,1.83,4.12,4.12,0,0,1-1,1.47,4.93,4.93,0,0,1-1.66,1,6.5,6.5,0,0,1-2.24.36,6.73,6.73,0,0,1-2.74-.51,7.66,7.66,0,0,1-2.06-1.33l.35-.52a.59.59,0,0,1,.17-.18.48.48,0,0,1,.26-.06.87.87,0,0,1,.49.24,5.31,5.31,0,0,0,.75.52,5.94,5.94,0,0,0,1.15.52,5.23,5.23,0,0,0,1.7.24,5,5,0,0,0,1.68-.26,3.51,3.51,0,0,0,1.21-.72,2.92,2.92,0,0,0,.73-1.07,3.33,3.33,0,0,0,.25-1.29,2.13,2.13,0,0,0-.36-1.26,3.13,3.13,0,0,0-.95-.85,6.6,6.6,0,0,0-1.34-.59l-1.54-.48c-.53-.16-1-.34-1.54-.53a5.23,5.23,0,0,1-1.34-.73,3.48,3.48,0,0,1-1-1.07,3.12,3.12,0,0,1-.36-1.57,3.58,3.58,0,0,1,.35-1.54,3.88,3.88,0,0,1,1-1.3,4.88,4.88,0,0,1,1.57-.89,6.18,6.18,0,0,1,2.08-.33,6.92,6.92,0,0,1,2.45.4,6,6,0,0,1,2,1.22Z" transform="translate(-3.35 -2.92)" style="fill:#bfc4c8"/><path d="M135.55,25.66a3.21,3.21,0,0,1-2.38-.85,3.56,3.56,0,0,1-.85-2.62V11.89h-2.17a.4.4,0,0,1-.27-.09.33.33,0,0,1-.11-.26V11l2.58-.18.36-5.39a.44.44,0,0,1,.11-.24.35.35,0,0,1,.26-.11h.67v5.76h4.74V11.9h-4.74V22.12a3.13,3.13,0,0,0,.16,1.07,2.08,2.08,0,0,0,.44.74,1.77,1.77,0,0,0,.66.42,2.39,2.39,0,0,0,.82.14,2.43,2.43,0,0,0,.94-.16,3.91,3.91,0,0,0,.68-.35,4.41,4.41,0,0,0,.47-.35.5.5,0,0,1,.29-.16.33.33,0,0,1,.24.15l.39.64a4.25,4.25,0,0,1-1.46,1A4.48,4.48,0,0,1,135.55,25.66Z" transform="translate(-3.35 -2.92)" style="fill:#bfc4c8"/><path d="M147.13,10.11a6.22,6.22,0,0,1,2.35.44,5.29,5.29,0,0,1,1.88,1.28,5.92,5.92,0,0,1,1.24,2.07,8.18,8.18,0,0,1,.45,2.82.71.71,0,0,1-.1.45.39.39,0,0,1-.31.12H141.76v.29a10.25,10.25,0,0,0,.39,3,6.14,6.14,0,0,0,1.12,2.16A4.55,4.55,0,0,0,145,24a5.86,5.86,0,0,0,2.3.44,6.79,6.79,0,0,0,2-.25,7.54,7.54,0,0,0,1.4-.56,7.33,7.33,0,0,0,.9-.56,1,1,0,0,1,.49-.25.34.34,0,0,1,.3.15l.39.49a4,4,0,0,1-1,.85,6.62,6.62,0,0,1-1.33.67,9.11,9.11,0,0,1-1.58.45,8.73,8.73,0,0,1-1.69.17,7.16,7.16,0,0,1-2.82-.54,5.89,5.89,0,0,1-2.18-1.57A7.18,7.18,0,0,1,140.81,21a10.8,10.8,0,0,1-.5-3.42,9.24,9.24,0,0,1,.46-3,6.9,6.9,0,0,1,1.33-2.36,6,6,0,0,1,2.14-1.55A7.07,7.07,0,0,1,147.13,10.11Zm0,1.08a5.73,5.73,0,0,0-2.09.36,4.57,4.57,0,0,0-1.6,1,5.28,5.28,0,0,0-1.09,1.64,7.39,7.39,0,0,0-.55,2.14h9.92a6.64,6.64,0,0,0-.33-2.17,4.59,4.59,0,0,0-.94-1.63,4,4,0,0,0-1.45-1A4.52,4.52,0,0,0,147.15,11.19Z" transform="translate(-3.35 -2.92)" style="fill:#bfc4c8"/><path d="M156.14,25.42V10.35h.79a.41.41,0,0,1,.45.38l.14,2.18a10.55,10.55,0,0,1,.94-1.14,6.4,6.4,0,0,1,1.07-.89,5,5,0,0,1,1.21-.58,4.35,4.35,0,0,1,1.36-.2,3.59,3.59,0,0,1,2.63,1,5,5,0,0,1,1.33,2.67,5.28,5.28,0,0,1,.76-1.62A4.85,4.85,0,0,1,168,11a4.65,4.65,0,0,1,1.38-.67,5.31,5.31,0,0,1,1.54-.22,5.11,5.11,0,0,1,2,.37,4,4,0,0,1,1.52,1.1,4.87,4.87,0,0,1,1,1.79,8.14,8.14,0,0,1,.33,2.42V25.4h-1.44V15.77a5.23,5.23,0,0,0-.95-3.37,3.34,3.34,0,0,0-2.73-1.16,4.06,4.06,0,0,0-1.51.29,3.62,3.62,0,0,0-1.27.86,4.12,4.12,0,0,0-.88,1.42,5.42,5.42,0,0,0-.33,2v9.63h-1.44V15.78a5.49,5.49,0,0,0-.88-3.36,3,3,0,0,0-2.56-1.17,3.91,3.91,0,0,0-2.27.73,6.84,6.84,0,0,0-1.86,2V25.41h-1.43Z" transform="translate(-3.35 -2.92)" style="fill:#bfc4c8"/></svg>