<svg id="Layer_1" data-name="Layer 1" xmlns="http://www.w3.org/2000/svg" viewBox="0 0 60 60"><title>icon-govnl-drivers-licence</title><path d="M57.86,8.85a2.24,2.24,0,0,1,2.23,2.25V49.63a2.24,2.24,0,0,1-2.23,2.25H2.23A2.24,2.24,0,0,1,0,49.63V11.1A2.24,2.24,0,0,1,2.23,8.85" fill="#cce7d3"/><path d="M53.22,39a1,1,0,0,0-.3.72,1,1,0,0,0,.3.73,1,1,0,0,0,1.45,0,1.06,1.06,0,0,0,.3-.73,1,1,0,0,0-.3-.72,1.08,1.08,0,0,0-1.45,0Zm0,0" fill="#868e95"/><path d="M31.4,23.33H41.65a1,1,0,1,0,0-2H31.4a1,1,0,0,0,0,2Zm0,0" fill="#878f97"/><path d="M32.43,38.7h-1a1,1,0,1,0,0,2h1a1,1,0,1,0,0-2Zm0,0" fill="#878f97"/><path d="M38.58,38.7h-2a1,1,0,1,0,0,2h2a1,1,0,1,0,0-2Zm0,0" fill="#878f97"/><path d="M43.7,38.7h-1a1,1,0,1,0,0,2h1a1,1,0,0,0,0-2Zm0,0" fill="#878f97"/><path d="M49.84,38.7h-2a1,1,0,1,0,0,2h2a1,1,0,1,0,0-2Zm0,0" fill="#868e95"/><path d="M31.4,29.48H54a1,1,0,0,0,0-2.05H31.4a1,1,0,0,0,0,2.05Zm0,0" fill="#878f97"/><path d="M54,33.57H31.4a1,1,0,0,0,0,2H54a1,1,0,0,0,0-2Zm0,0" fill="#878f97"/><path d="M17.34,19.6a4.3,4.3,0,0,1,4.29,4.29v5.37c0,1.08-2.15,3.23-2.15,3.23v2.14l6.45,2.58v3.87H6.6V37L13,34.42V32.27s-2.15-1.93-2.15-3.22V23.89a4.31,4.31,0,0,1,4.3-4.29Zm0,0" fill="#5f6369"/></svg>