<?xml version="1.0" encoding="utf-8"?>
<!-- Generator: Adobe Illustrator 24.3.0, SVG Export Plug-In . SVG Version: 6.00 Build 0)  -->
<svg version="1.1" id="Layer_1" xmlns="http://www.w3.org/2000/svg" xmlns:xlink="http://www.w3.org/1999/xlink" x="0px" y="0px"
	 viewBox="0 0 60 60" style="enable-background:new 0 0 60 60;" xml:space="preserve">
<style type="text/css">
	.st0{fill:#0F4C88;}
	.st1{fill:none;}
	.st2{fill:#035489;}
	.st3{fill:#357FA9;}
</style>
<g>
	<ellipse class="st0" cx="30.7" cy="57" rx="6.9" ry="2.5"/>
	<path class="st1" d="M23.5,18.7c0,4.1,3.3,7.5,7.3,7.5c0,0,0,0,0,0V11.2C26.8,11.2,23.5,14.5,23.5,18.7z"/>
	<path class="st2" d="M30.8,26.1c-4,0-7.3-3.4-7.3-7.5c0-4.1,3.2-7.4,7.3-7.5V0.5c-0.2,0-0.5,0-0.7,0C20.4,1.2,13.2,9,13.2,18.8
		c0,3.5,1,6.8,2.8,9.7c4.4,6.9,8.8,13.9,13.2,20.8c0.6,0.9,1.1,1.4,1.6,1.4L30.8,26.1C30.8,26.1,30.8,26.1,30.8,26.1z"/>
	<path class="st3" d="M32.5,49.2c4.1-6.5,8.2-13.1,12.4-19.6c3-4.5,4.2-9.2,3.3-14.6C46.9,6.9,39,0.4,30.8,0.5v10.7c0,0,0.1,0,0.1,0
		c4.1,0,7.3,3.4,7.2,7.5c-0.1,4.1-3.3,7.4-7.3,7.4v24.6C31.4,50.7,31.9,50.2,32.5,49.2z"/>
</g>
</svg>
