<svg id="Layer_1" data-name="Layer 1" xmlns="http://www.w3.org/2000/svg" viewBox="0 0 60 60"><title>icon-govnl-vehicle-trailer</title><circle cx="30.58" cy="47.98" r="6.18" fill="#3b4148"/><circle cx="44.4" cy="47.98" r="6.18" fill="#3b4148"/><circle cx="30.58" cy="47.98" r="2.18" fill="#dfe3e6"/><circle cx="44.4" cy="47.98" r="2.18" fill="#dfe3e6"/><rect y="38.29" width="12.73" height="3.64" fill="#3b4148"/><path d="M58,9.16H20.9c-6.35,0-11.81,7.27-11.81,12.17v21a2,2,0,0,0,2,2H23.87a7.63,7.63,0,0,1,13.42,0h.41a7.63,7.63,0,0,1,13.42,0H58a2,2,0,0,0,2-2V11.15A2,2,0,0,0,58,9.16Z" fill="#5f6369"/><rect x="26.22" y="19.76" width="10.18" height="10.18" rx="0.74" fill="#3b4148"/><rect x="38.22" y="19.76" width="10.18" height="10.18" rx="0.74" fill="#3b4148"/><rect x="0.36" y="36.21" width="2.91" height="1.82" fill="#3b4148"/><rect x="1.09" y="37.67" width="1.45" height="1.09" fill="#3b4148"/><rect x="1.45" y="39.61" width="1.09" height="1.64" fill="#3b4148"/><path d="M9.09,37.72v4.63a2,2,0,0,0,2,2H23.87a7.63,7.63,0,0,1,13.42,0h.41a7.63,7.63,0,0,1,13.42,0H58a2,2,0,0,0,2-2V37.72Z" fill="#bfc4c8"/></svg>