<svg id="Layer_1" data-name="Layer 1" xmlns="http://www.w3.org/2000/svg" viewBox="0 0 60 60"><title>icon-govnl-vehicle-taxi</title><polygon points="39.13 10.58 20.33 10.58 21.53 3.42 37.94 3.42 39.13 10.58" fill="#3e4e5c"/><path d="M54.51,23.58a1.23,1.23,0,0,1-.81,1.09l.5.92a1.25,1.25,0,0,1,1.49-.42h.46V23.58Z" fill="#ffaf17"/><path d="M60,23.42c0,.81-1.1,1.6-2.24,1.89-1.68.42-3.27-.38-3.27-2s1.12-2.44,2.76-2C58.37,21.64,60,22.62,60,23.42Z" fill="#ffaf17"/><path d="M5.49,23.58a1.23,1.23,0,0,0,.81,1.09l-.5.92a1.25,1.25,0,0,0-1.49-.42H3.85V23.58Z" fill="#ffaf17"/><path d="M0,23.42c0,.81,1.1,1.6,2.24,1.89,1.68.42,3.27-.38,3.27-2s-1.12-2.44-2.76-2C1.63,21.64,0,22.62,0,23.42Z" fill="#ffaf17"/><rect x="49.92" y="39.27" width="7.24" height="16.35" rx="1.41" fill="#414242"/><rect x="2.84" y="39.27" width="7.24" height="16.35" rx="1.41" fill="#414242"/><path d="M56.65,30.18c-.3-2-1.86-4.27-2.71-6s-4-9.75-4.78-11.16A6.38,6.38,0,0,0,44.74,9.9c-2-.3-10.89-.34-14.74-.34s-12.73,0-14.74.34A6.38,6.38,0,0,0,10.84,13c-.77,1.41-3.92,9.45-4.78,11.16s-2.41,4-2.71,6-.2,13.92.3,15.88a4.24,4.24,0,0,0,3.82,3.16H52.53a4.24,4.24,0,0,0,3.82-3.16C56.85,44.1,57,32.19,56.65,30.18Z" fill="#ffaf17"/><path d="M3.2,38.29a56,56,0,0,0,.45,7.77,4.24,4.24,0,0,0,3.82,3.16H52.53a4.24,4.24,0,0,0,3.82-3.16,56,56,0,0,0,.45-7.77Z" fill="#e89213"/><path d="M54.06,45.66A.85.85,0,0,1,53.28,47H6.72a.85.85,0,0,1-.78-1.29l1-2.47a1.94,1.94,0,0,1,1.66-1.14H51.39a1.94,1.94,0,0,1,1.66,1.14Z" fill="#3e4e5c"/><path d="M51.83,22.63c-.26-.88-2.67-7-3.37-8.48s-1.66-2-2.36-2H13.9c-.7,0-1.66.5-2.36,2s-3.11,7.6-3.37,8.48S8.33,23.9,9,23.9H51C51.67,23.9,52.08,23.5,51.83,22.63Z" fill="#333e4a"/><path d="M43.46,32.74s2.21,2.77,3.31,2.77h6.38a1.4,1.4,0,0,0,1.46-1.16,13.34,13.34,0,0,0,0-4.47A51.85,51.85,0,0,1,43.46,32.74Z" fill="#e9ebec"/><path d="M16.54,32.74s-2.21,2.77-3.31,2.77H6.85a1.4,1.4,0,0,1-1.46-1.16,13.34,13.34,0,0,1,0-4.47A51.85,51.85,0,0,0,16.54,32.74Z" fill="#e9ebec"/><text transform="translate(23.84 8.64) scale(0.94 1)" font-size="6.24" fill="#fff" font-family="MyriadPro-Black, MyriadPro Black" font-weight="800" letter-spacing="-0.03em">T<tspan x="2.89" y="0" letter-spacing="0.03em">A</tspan><tspan x="6.88" y="0" letter-spacing="0.04em">XI</tspan></text><path d="M40.7,35a3.09,3.09,0,0,0-2.91-1.61H22.21A3.09,3.09,0,0,0,19.3,35c-.3.9,1.05,4.62,1.55,5.3s1.06.84,2.67.84h13c1.61,0,2.16-.16,2.67-.84S41,35.85,40.7,35Z" fill="#3e4e5c"/><rect x="19.14" y="25.49" width="3.07" height="3.07" fill="#3e4e5c"/><rect x="22.21" y="28.56" width="3.07" height="3.07" fill="#3e4e5c"/><rect x="25.28" y="25.49" width="3.07" height="3.07" fill="#3e4e5c"/><rect x="28.35" y="28.56" width="3.07" height="3.07" fill="#3e4e5c"/><rect x="31.41" y="25.49" width="3.07" height="3.07" fill="#3e4e5c"/><rect x="34.48" y="28.56" width="3.07" height="3.07" fill="#3e4e5c"/><rect x="37.55" y="25.49" width="3.07" height="3.07" fill="#3e4e5c"/></svg>