<svg id="Layer_1" data-name="Layer 1" xmlns="http://www.w3.org/2000/svg" viewBox="0 0 60 60"><title>icon-govnl-vehicle-car</title><path d="M54.52,21.06a1.22,1.22,0,0,1-.8,1.09l.5.92a1.24,1.24,0,0,1,1.49-.42h.45V21.06Z" fill="#4193cf"/><path d="M60,20.9c.05.81-1.1,1.6-2.24,1.88-1.68.43-3.27-.37-3.27-2s1.12-2.44,2.76-2C58.39,19.12,60,20.1,60,20.9Z" fill="#4193cf"/><path d="M5.49,21.06a1.23,1.23,0,0,0,.81,1.09l-.5.92a1.25,1.25,0,0,0-1.49-.42H3.85V21.06Z" fill="#4193cf"/><path d="M0,20.9c0,.81,1.1,1.6,2.24,1.88,1.68.43,3.27-.37,3.27-2s-1.12-2.44-2.75-2C1.63,19.12,0,20.1,0,20.9Z" fill="#4193cf"/><rect x="49.94" y="36.76" width="7.24" height="16.36" rx="1.41" fill="#414242"/><rect x="2.84" y="36.76" width="7.24" height="16.36" rx="1.41" fill="#414242"/><path d="M56.66,27.66c-.3-2-1.86-4.27-2.71-6s-4-9.75-4.77-11.16a6.37,6.37,0,0,0-4.43-3.14C42.74,7.08,33.86,7,30,7s-12.74,0-14.75.34a6.33,6.33,0,0,0-4.42,3.14C10.07,11.93,6.92,20,6.07,21.68s-2.42,4-2.72,6-.2,13.92.3,15.88a4.27,4.27,0,0,0,3.82,3.17H52.54a4.25,4.25,0,0,0,3.82-3.17C56.87,41.58,57,29.67,56.66,27.66Z" fill="#4193cf"/><path d="M3.2,35.77a59.31,59.31,0,0,0,.45,7.77,4.27,4.27,0,0,0,3.82,3.17H52.54a4.25,4.25,0,0,0,3.82-3.17,55.85,55.85,0,0,0,.45-7.77Z" fill="#3780b4"/><path d="M54.08,43.15a.84.84,0,0,1-.79,1.28H6.73a.84.84,0,0,1-.79-1.28l1-2.48a1.94,1.94,0,0,1,1.67-1.13H51.4a1.94,1.94,0,0,1,1.67,1.13Z" fill="#3e4e5c"/><path d="M40.71,31.83a3.1,3.1,0,0,0-2.91-1.61H22.22a3.12,3.12,0,0,0-2.92,1.61c-.3.91,1.06,4.63,1.56,5.31s1.06.84,2.66.84h13c1.61,0,2.16-.17,2.67-.84S41,32.74,40.71,31.83Z" fill="#3e4e5c"/><path d="M51.84,20.1c-.25-.87-2.66-7-3.37-8.47s-1.66-2-2.36-2H13.91c-.71,0-1.66.5-2.37,2s-3.11,7.6-3.36,8.47.15,1.28.8,1.28H51C51.69,21.38,52.09,21,51.84,20.1Z" fill="#333e4a"/><path d="M43.47,30.22S45.68,33,46.78,33h6.39a1.42,1.42,0,0,0,1.46-1.16,13.34,13.34,0,0,0,0-4.47A52.07,52.07,0,0,1,43.47,30.22Z" fill="#e9ebec"/><path d="M16.55,30.22S14.34,33,13.23,33H6.85a1.4,1.4,0,0,1-1.46-1.16,13.34,13.34,0,0,1,0-4.47A51.85,51.85,0,0,0,16.55,30.22Z" fill="#e9ebec"/></svg>