<?xml version="1.0" encoding="utf-8"?>
<!-- Generator: Adobe Illustrator 24.0.0, SVG Export Plug-In . SVG Version: 6.00 Build 0)  -->
<svg version="1.1" xmlns="http://www.w3.org/2000/svg" xmlns:xlink="http://www.w3.org/1999/xlink" x="0px" y="0px"
	 viewBox="0 0 60 60" enable-background="new 0 0 60 60" xml:space="preserve">
<g id="Layer_1">
	<g>
		<g>
			<ellipse fill="#477D4B" cx="37.9" cy="56.7" rx="9.5" ry="3.3"/>
			<path fill="#B0916F" d="M32.5,46.4h11c0,0,0.1,9.3,0.1,9.3c0,0.8-2.5,1.5-5.6,1.5c-3,0-5.5-0.7-5.5-1.5
				C32.5,55.7,32.5,46.4,32.5,46.4z"/>
			<path fill="#A27E58" d="M31.9,55.8c0,0,0.5-9.4,0.5-9.4h5.5v10.9C34.8,57.3,31.9,56.6,31.9,55.8z"/>
			<ellipse fill="#C1A88C" cx="37.9" cy="46.4" rx="5.5" ry="1.5"/>
			<g>
				<path fill="#B0916F" d="M33.9,29.3l8.3,12c0,0,0,0,0,0c0,0,0,0,0,0c0.4,0.7-1.4,2.6-4.1,4.1l-7.9-14L33.9,29.3z"/>
				<path fill="#A27E58" d="M32.5,46.8C32.5,46.8,32.5,46.8,32.5,46.8C32.5,46.8,32.5,46.8,32.5,46.8l-5.8-13.4l3.5-2l7.9,14
					C35.5,46.9,33,47.5,32.5,46.8z"/>
				<path fill="#A27E58" d="M32.5,46.8C32.5,46.8,32.5,46.8,32.5,46.8C32.5,46.8,32.5,46.8,32.5,46.8l-5.8-13.4l3.5-2l7.9,14
					C35.5,46.9,33,47.5,32.5,46.8z"/>
			</g>
		</g>
		<g>
			<path fill="#308045" d="M20.1,38c-1.7,3.1-3.7,6.1-6.7,8.5c0,0.1,0,0.2,0,0.3c0.9,0.6,2,0.5,3.1,0.5c2,0,4-0.6,6-1.5
				c-0.8,1.1-1.8,2-2.8,2.8c-0.3,0.3-0.8,0.5-0.7,1c0.2,0.5,0.7,0.4,1.2,0.4c2.2-0.1,4.3-0.8,6.4-1.7c0.8-0.4,1.6-0.8,2.3-1.3
				c0.3-0.2,3.3-2.5,3.4-2.6c1-0.8,1.8-1.7,2.6-2.7c0.4-0.5,0.9-0.8,1.5-0.8c1-0.1,1.9-0.2,2.9-0.5c0.2-0.1,6.2-2.4,8.6-4.1
				c1.7-1.3,3.1-2.7,4.3-4.7C50,32.4,48,33,45.6,33.1c3.3-1.9,5.7-4.3,6.9-7.5c-2.3,0.6-10.8,0.7-11.3,0.8c-1.6,0.7-3.1,1.8-4.7,2.4
				c-1.8,0.6-3.6,1.2-5.4,1.4c-0.8,0.1-1.6,0.5-2.2,1.1c-2.2,2.6-4.9,4.6-8,6.1C20.6,37.4,20.1,37.5,20.1,38z"/>
			<path fill="#2F9986" d="M20.1,38c0.7-0.4,1.4-0.8,2.1-1.1c2.7-1.4,4.9-3.2,6.8-5.4c0.6-0.7,1.2-1,2.1-1.1
				c3.3-0.4,6.5-1.5,9.4-3.4c0.3-0.2,0.6-0.3,0.9-0.4c0.5-0.4,1.1-0.9,1.5-1.4c0.9-0.9,1.7-1.8,2.4-3.1c-2.2,0.9-4.2,1.3-6.3,1.3
				c1.4-0.9,2.7-1.7,3.7-2.9c1.1-1.1,1.9-2.4,2.5-3.9c-4.1,1.1-8,1.2-11.8,0.6c-0.4-0.3-0.7,0-1.1,0.2c-2.2,1.4-4.6,2.2-7.1,2.5
				c-0.7,0.1-1.3,0.4-1.8,0.9c-1.8,2-3.8,3.6-6.3,4.7c-0.3,0.1-0.7,0.3-0.7,0.7c-1.6,3.5-3.8,6.7-7,9.5c3.2,0.6,6.2,0.1,9.3-1.6
				c-0.6,1.1-1.3,1.8-2,2.5c-0.7,0.7-1.5,1.4-2.6,2.1c1.7,0.2,3.2-0.1,4.7-0.5C19.3,38.1,19.7,37.8,20.1,38z"/>
			<path fill="#3FAA95" d="M16.6,26.1c0.3-0.5,0.9-0.5,1.3-0.7c2.3-1.2,4.3-2.8,6-4.7c0.3-0.4,0.7-0.6,1.2-0.7
				c2.9-0.3,5.6-1.2,8-2.9c0.1-0.1,0.3-0.1,0.4-0.1c0.7-0.9,1.7-1.5,2.3-2.4c0.2-0.3,0.4-0.6,0.7-1.1c-1.6,0.5-3,1-4.6,0.9
				c2.3-1.4,4-3,4.9-5.4c-3.3,0.9-6.5,0.9-9.6,0.5c-0.3-0.2-0.6-0.1-0.9,0.1c-1.8,1.1-3.8,1.9-5.8,2.1c-0.5,0.1-0.9,0.4-1.3,0.8
				c-1.3,1.5-2.9,2.7-4.7,3.5c-0.4,0.2-0.7,0.4-0.7,0.8c-1.3,2.8-3,5.5-5.6,7.6c1.6,0.7,3.9,0.4,7.1-0.9c-0.4,0.7-0.9,1.2-1.4,1.7
				c-0.5,0.5-1.1,1-1.7,1.5C13.6,27,15.1,26.3,16.6,26.1z"/>
			<path fill="#51BBA9" d="M13.7,16.8c0.7-0.8,1.8-1,2.6-1.7c1.1-0.8,2.2-1.5,3-2.5c0.4-0.4,0.7-0.6,1.3-0.7c2.1-0.3,4.1-1,5.9-2.2
				c0.2-0.1,0.5-0.1,0.7-0.2c0.1-0.7,1.7-2.1,2.1-2.6c-1.1,0.3-2,0.7-2.9,0.7c-0.2,0-0.3-0.1-0.2-0.3c1.5-0.9,2.5-2.2,3.2-3.8
				C23.1,4.9,17.9,3.3,13.4,0c0.1,2.8-0.1,5.4-1.1,8.1c-1,2.6-2.5,5-4.8,7.2c1.9,0.4,3.6,0.1,5.5-0.9c-0.7,1.1-1.5,1.8-2.5,2.5
				c0.8,0.2,1.6,0,2.3-0.1C13.1,16.7,13.4,16.5,13.7,16.8z"/>
		</g>
	</g>
</g>
<g id="checkmark" display="none">
	<g display="inline">
		<g>
			<g>
				<ellipse fill="#007B3F" cx="49.2" cy="10.9" rx="9.6" ry="9.6"/>
				<path fill="#FFFFFF" d="M49.2,1.2c5.3,0,9.6,4.3,9.6,9.6c0,5.3-4.3,9.6-9.6,9.6s-9.6-4.3-9.6-9.6C39.6,5.5,43.9,1.2,49.2,1.2
					 M49.2,0c-6,0-10.8,4.9-10.8,10.8c0,6,4.9,10.8,10.8,10.8c6,0,10.8-4.9,10.8-10.8c0-3.3-1.5-6.3-3.9-8.3C54.2,1,51.8,0,49.2,0
					L49.2,0z"/>
			</g>
		</g>
		<path fill="#FFFFFF" d="M46.7,15.1l-3.4-3.4c-0.4-0.4-0.4-1,0-1.3s1-0.4,1.3,0l2.7,2.7l6.5-6.5c0.4-0.4,1-0.4,1.3,0
			c0.4,0.4,0.4,1,0,1.3l-7.2,7.2C47.7,15.5,47.1,15.5,46.7,15.1z"/>
	</g>
</g>
<g id="alert">
	<g>
		<g>
			<g>
				<circle fill="#E83E3D" cx="49.1" cy="10.9" r="9.6"/>
				<path fill="#FFFFFF" d="M49.1,1.2c5.3,0,9.6,4.3,9.6,9.6c0,5.3-4.3,9.6-9.6,9.6s-9.6-4.3-9.6-9.6C39.5,5.5,43.8,1.2,49.1,1.2
					 M49.1,0c-6,0-10.8,4.9-10.8,10.8c0,6,4.9,10.8,10.8,10.8c6,0,10.8-4.9,10.8-10.8C60,4.9,55.1,0,49.1,0L49.1,0z"/>
			</g>
		</g>
		<path fill="#FFFFFF" d="M49.1,11.4c-0.5,0-0.9-0.4-0.9-0.9V6.8c0-0.5,0.4-0.9,0.9-0.9c0.5,0,0.9,0.4,0.9,0.9v3.8
			C50,11,49.6,11.4,49.1,11.4z M50,15.2h-1.9v-1.9H50V15.2z"/>
	</g>
</g>
</svg>
