<svg id="Layer_1" data-name="Layer 1" xmlns="http://www.w3.org/2000/svg" viewBox="0 0 60 60"><title>icon-govnl-megaphone</title><path d="M19.16,41.83l9.19-2.91c1,2.81-1.45,3.7-1,7.17.18,1.32,1.17.94,1.73,2.39l.14,3.57,3,2.34c.42,1.13-1,2.44-1,2.44s-3.09,3.52-5.3,3.14c-3.09-.47-6.75-18.14-6.75-18.14Zm0,0" fill="#004b87"/><path d="M27.37,46.09c-.43-3.33,1.73-4.26,1.07-6.75L22.72,40.7l-3.56,1.13s.09.51.33,1.4l8.06,3.38a1.26,1.26,0,0,1-.18-.52Zm0,0" fill="#034470"/><path d="M6.78,26.16l5-1.78a35.08,35.08,0,0,0,2.35,9.71A31.88,31.88,0,0,0,18.69,43l-5,1.78c-3.38,1.22-7.64-2-9.56-7.08S3.41,27.38,6.78,26.16Zm0,0" fill="#004b87"/><path d="M40.31,24.57c-4-10.74-5.3-20.4-3.28-23a7.18,7.18,0,0,0-1,1.22C32.71,7.69,27.13,18.29,8,25.13v.05c-1.17.42-.52,5.11,1.45,10.41S14,44.92,15.13,44.5c19.13-6.85,30.38-2.11,36.2-.47a3.68,3.68,0,0,0,2.86-.14c-3,1.17-9.43-7.41-13.88-19.32Zm0,0" fill="#eaeced"/><path d="M36.13,6.1c.47-2.86.61-3.43.8-4.32l0-.14a8.74,8.74,0,0,0-.89,1.13C32.71,7.69,27.13,18.29,8,25.13v.05c-.47.19-.66,1-.56,2.3L9,27C26.62,20.77,32.66,11.3,36.13,6.1Zm0,0" fill="#dfe3e6"/><path d="M38.53.14C34.82,1.5,35.34,12.43,39.7,24.52S50.53,45.34,54.23,43.94s3.19-12.29-1.17-24.39S42.18-1.22,38.53.14Zm0,0" fill="#bfc4c8"/><path d="M44.34,29.21c-4.31-12.1-4.83-23-1.17-24.38a3.17,3.17,0,0,1,2.67.42C43.12,1.45,40.45-.56,38.53.14,34.82,1.5,35.34,12.43,39.7,24.52c3.42,9.57,8.2,17,11.86,19a59.44,59.44,0,0,1-7.22-14.3Zm0,0" fill="#abb6ba"/><path d="M38.62,19.6a4.55,4.55,0,0,0-.47.19c.42,1.55.94,3.09,1.5,4.73a69.42,69.42,0,0,0,2.77,6.66,2.93,2.93,0,0,0,.37-.14A6.09,6.09,0,1,0,38.62,19.6Zm0,0" fill="#eaeced"/><path d="M44.34,29.21a66.16,66.16,0,0,1-2.77-9.94,5.84,5.84,0,0,0-3,.33,4.55,4.55,0,0,0-.47.19c.42,1.55.94,3.09,1.5,4.73a69.42,69.42,0,0,0,2.77,6.66,2.93,2.93,0,0,0,.37-.14A4.94,4.94,0,0,0,44.62,30c-.09-.23-.19-.47-.28-.75Zm0,0" fill="#d9dada"/></svg>