<svg xmlns="http://www.w3.org/2000/svg" viewBox="0 0 60 60"><title>icon-govnl-heart-border</title><g id="Heart"><path d="M30,54.6,26.05,51C12,38.23,2.73,29.81,2.73,19.48a14.88,14.88,0,0,1,15-15A16.32,16.32,0,0,1,30,10.16,16.32,16.32,0,0,1,42.27,4.44a14.88,14.88,0,0,1,15,15C57.27,29.81,48,38.23,34,51Z" fill="#e83e3d"/><path d="M42.27,4.44a14.88,14.88,0,0,1,15,15C57.27,29.81,48,38.23,34,51L30,54.6,26.05,51C12,38.23,2.73,29.81,2.73,19.48a14.88,14.88,0,0,1,15-15A16.32,16.32,0,0,1,30,10.16,16.32,16.32,0,0,1,42.27,4.44m0-2.73A19.05,19.05,0,0,0,30,6.3,19.05,19.05,0,0,0,17.73,1.71,17.56,17.56,0,0,0,0,19.48C0,31,9.62,39.75,24.18,53l4,3.63L30,58.29l1.84-1.66,4-3.58.12-.11C50.41,39.73,60,31,60,19.48A17.56,17.56,0,0,0,42.27,1.71Z" fill="#fff"/></g></svg>