<?xml version="1.0" encoding="utf-8"?>
<!-- Generator: Adobe Illustrator 24.3.0, SVG Export Plug-In . SVG Version: 6.00 Build 0)  -->
<svg version="1.1" id="Layer_1" xmlns="http://www.w3.org/2000/svg" xmlns:xlink="http://www.w3.org/1999/xlink" x="0px" y="0px"
	 viewBox="0 0 80 80" style="enable-background:new 0 0 80 80;" xml:space="preserve">
<style type="text/css">
	.st0{fill:#477D4B;}
	.st1{fill:#B0916F;}
	.st2{fill:#A27E58;}
	.st3{fill:#C1A88C;}
	.st4{fill:#308045;}
	.st5{fill:#2F9986;}
	.st6{fill:#3FAA95;}
	.st7{fill:#51BBA9;}
	.st8{fill:#E83F3C;}
	.st9{fill:#121212;}
	.st10{fill:#404042;}
	.st11{fill:#616165;}
	.st12{fill:#4F4F51;}
	.st13{fill:#B3E6FF;}
	.st14{fill:#515153;}
	.st15{fill:#5E5F61;}
	.st16{fill:#444446;}
	.st17{fill:#1B1B1B;}
	.st18{fill:#A0A0A0;}
	.st19{fill:#303030;}
	.st20{fill:#D3D3D3;}
	.st21{fill:#8CCCED;}
	.st22{fill:#FFFFFF;}
	.st23{fill:#D32A2D;stroke:#FFFFFF;stroke-width:0.5;stroke-miterlimit:10;}
	.st24{fill:#FFFFFF;stroke:#737373;stroke-miterlimit:10;}
	.st25{fill:#9B9B9B;}
	.st26{fill:#0D4D87;}
	.st27{fill:#CED7F0;}
	.st28{fill:#FEC662;}
	.st29{fill:#F7F8F9;stroke:#000000;stroke-width:0.9484;stroke-miterlimit:10;}
	.st30{fill:#1B5E96;}
	.st31{fill:#C6C6C6;}
	.st32{fill:#494949;}
	.st33{fill:#F7F8F9;stroke:#2B2B2B;stroke-width:0.9898;stroke-miterlimit:10;}
	.st34{fill:#2B2B2B;}
	.st35{fill:#FCB042;}
	.st36{opacity:0.59;fill:url(#SVGID_1_);}
	.st37{fill:#686868;}
	.st38{fill:#333333;}
	.st39{fill:#515151;}
	.st40{fill:#373838;}
	.st41{fill:#282828;}
	.st42{fill:#E2E2E2;}
	.st43{fill:#B92031;}
	.st44{opacity:0.18;}
	.st45{fill:#F0FAFF;}
	.st46{fill:#383838;}
	.st47{fill:#FFFFFF;stroke:#333333;stroke-width:0.4971;stroke-miterlimit:10;}
	.st48{fill:#666666;}
	.st49{fill:#D5DFE5;}
	.st50{fill:#AAB1B5;}
	.st51{fill:#FFFFFF;stroke:#333333;stroke-width:0.619;stroke-miterlimit:10;}
	.st52{fill:#EEF2F5;}
</style>
<g>
	<path class="st49" d="M20.2,1.47c-2.71,0-4.91,2.2-4.91,4.91v67.56c0,2.71,2.2,4.91,4.91,4.91h46.27c2.71,0,4.91-2.2,4.91-4.91
		V15.11L56.94,1.47H20.2z"/>
	<path class="st49" d="M71.28,5.39c0.07,0.32,0.1,0.65,0.1,0.99v0C71.38,6.04,71.34,5.71,71.28,5.39z"/>
	<path class="st49" d="M66.47,1.47L66.47,1.47c0.68,0,1.32,0.14,1.91,0.39C67.79,1.61,67.15,1.47,66.47,1.47z"/>
</g>
<path class="st50" d="M57.81,13.63c-0.29-0.6-0.47-1.26-0.51-1.97L56.94,1.47l14.43,13.64v1.39l-8.75-0.01
	c-0.35,0.02-0.69,0-1.02-0.05C59.95,16.2,58.54,15.13,57.81,13.63z"/>
<g>
	<path class="st46" d="M61.33,10.99H21.36c-0.56,0-1.01-0.45-1.01-1.01V7.97c0-0.56,0.45-1.01,1.01-1.01h39.97
		c0.56,0,1.01,0.45,1.01,1.01v2.02C62.34,10.54,61.89,10.99,61.33,10.99z"/>
	<path class="st46" d="M54.03,15.85H21.36c-0.56,0-1.01-0.45-1.01-1.01v-0.09c0-0.56,0.45-1.01,1.01-1.01h32.66
		c0.56,0,1.01,0.45,1.01,1.01v0.09C55.03,15.4,54.58,15.85,54.03,15.85z"/>
	<path class="st46" d="M53.6,21.23H21.36c-0.56,0-1.01-0.45-1.01-1.01v-0.09c0-0.56,0.45-1.01,1.01-1.01H53.6
		c0.56,0,1.01,0.45,1.01,1.01v0.09C54.61,20.78,54.15,21.23,53.6,21.23z"/>
	<path class="st46" d="M52.94,26.62H21.36c-0.56,0-1.01-0.45-1.01-1.01v-0.09c0-0.56,0.45-1.01,1.01-1.01h31.58
		c0.56,0,1.01,0.45,1.01,1.01v0.09C53.95,26.17,53.5,26.62,52.94,26.62z"/>
	<path class="st46" d="M47.29,32.01H21.36c-0.56,0-1.01-0.45-1.01-1.01v-0.09c0-0.56,0.45-1.01,1.01-1.01h25.93
		c0.56,0,1.01,0.45,1.01,1.01V31C48.3,31.56,47.85,32.01,47.29,32.01z"/>
	<g>
		<path class="st46" d="M30.67,46.17h-1.59c-0.18,0-0.32-0.04-0.43-0.12c-0.11-0.08-0.19-0.19-0.25-0.32l-0.52-1.54h-3.36L24,45.72
			c-0.04,0.11-0.12,0.22-0.24,0.31c-0.12,0.09-0.26,0.14-0.43,0.14h-1.6l3.42-8.83h2.1L30.67,46.17z M27.41,42.79l-0.82-2.42
			c-0.06-0.15-0.13-0.33-0.19-0.54s-0.14-0.43-0.21-0.68c-0.06,0.25-0.13,0.47-0.19,0.68c-0.07,0.21-0.13,0.39-0.19,0.55l-0.81,2.41
			H27.41z"/>
		<path class="st46" d="M25.99,51.88c0.61,0,1.13,0.06,1.56,0.17c0.43,0.11,0.78,0.27,1.05,0.48c0.27,0.21,0.47,0.46,0.59,0.75
			c0.12,0.29,0.18,0.62,0.18,0.99c0,0.2-0.03,0.39-0.08,0.57c-0.06,0.18-0.15,0.36-0.27,0.51s-0.28,0.31-0.47,0.44
			s-0.42,0.25-0.69,0.35c0.58,0.14,1.01,0.37,1.29,0.69c0.28,0.31,0.42,0.72,0.42,1.22c0,0.38-0.07,0.72-0.22,1.05
			c-0.15,0.32-0.36,0.6-0.64,0.85c-0.28,0.24-0.63,0.43-1.04,0.56c-0.41,0.14-0.88,0.2-1.41,0.2h-3.53v-8.83H25.99z M24.79,53.42
			v2.18h1.07c0.23,0,0.43-0.02,0.61-0.05c0.18-0.03,0.34-0.09,0.46-0.17c0.13-0.08,0.22-0.19,0.29-0.33c0.07-0.14,0.1-0.32,0.1-0.53
			c0-0.21-0.03-0.38-0.08-0.52c-0.05-0.14-0.13-0.25-0.24-0.34c-0.11-0.08-0.25-0.14-0.42-0.18c-0.17-0.04-0.37-0.05-0.6-0.05H24.79
			z M26.24,59.17c0.27,0,0.49-0.03,0.66-0.1c0.17-0.07,0.31-0.16,0.4-0.27c0.1-0.11,0.16-0.23,0.2-0.37
			c0.04-0.14,0.05-0.28,0.05-0.42c0-0.16-0.02-0.31-0.06-0.44c-0.04-0.13-0.11-0.24-0.22-0.33c-0.1-0.09-0.24-0.16-0.41-0.21
			c-0.17-0.05-0.38-0.07-0.64-0.07h-1.43v2.2H26.24z"/>
	</g>
	<g>
		<circle class="st51" cx="37.98" cy="41.75" r="2.59"/>
		<circle class="st48" cx="37.98" cy="41.75" r="1.86"/>
	</g>
	<g>
		<circle class="st51" cx="37.98" cy="56.3" r="2.59"/>
	</g>
	<g>
		<circle class="st51" cx="37.98" cy="70.68" r="2.59"/>
	</g>
	<g>
		<path class="st46" d="M28.58,72.84c0.05,0,0.1,0.01,0.15,0.03c0.05,0.02,0.1,0.05,0.14,0.1l0.82,0.87
			c-0.36,0.47-0.81,0.83-1.36,1.07c-0.54,0.24-1.19,0.36-1.93,0.36c-0.68,0-1.29-0.12-1.83-0.35c-0.54-0.23-1-0.55-1.37-0.96
			c-0.38-0.41-0.66-0.89-0.86-1.45c-0.2-0.56-0.3-1.17-0.3-1.82c0-0.67,0.11-1.28,0.33-1.84c0.22-0.56,0.52-1.04,0.92-1.45
			c0.39-0.41,0.86-0.72,1.41-0.95c0.55-0.23,1.15-0.34,1.81-0.34c0.34,0,0.65,0.03,0.95,0.09c0.3,0.06,0.57,0.14,0.83,0.25
			c0.26,0.1,0.5,0.23,0.71,0.38c0.22,0.15,0.41,0.31,0.58,0.48l-0.7,0.94c-0.05,0.06-0.1,0.11-0.16,0.16
			c-0.06,0.05-0.15,0.07-0.26,0.07c-0.07,0-0.14-0.02-0.21-0.05c-0.07-0.03-0.14-0.07-0.21-0.12c-0.07-0.05-0.16-0.1-0.24-0.15
			c-0.09-0.06-0.19-0.11-0.31-0.15c-0.12-0.05-0.26-0.09-0.42-0.12c-0.16-0.03-0.35-0.05-0.57-0.05c-0.34,0-0.66,0.06-0.94,0.19
			c-0.29,0.13-0.53,0.31-0.74,0.56c-0.21,0.24-0.37,0.54-0.48,0.9c-0.11,0.35-0.17,0.76-0.17,1.21c0,0.46,0.06,0.87,0.19,1.22
			c0.13,0.36,0.3,0.66,0.51,0.9c0.22,0.24,0.47,0.43,0.75,0.56c0.29,0.13,0.59,0.19,0.92,0.19c0.19,0,0.36-0.01,0.52-0.03
			c0.16-0.02,0.3-0.05,0.44-0.09c0.14-0.04,0.26-0.1,0.38-0.17c0.12-0.07,0.24-0.16,0.36-0.27c0.05-0.04,0.1-0.07,0.16-0.1
			C28.46,72.85,28.52,72.84,28.58,72.84z"/>
	</g>
</g>
<path class="st52" d="M58.13,12.77c-0.28-0.57-0.46-1.21-0.5-1.88l-0.7-9.41l14.43,13.64l-8.56,0.38c-0.34,0.02-0.67,0-0.99-0.04
	C60.21,15.22,58.84,14.2,58.13,12.77z"/>
</svg>
