<svg id="Layer_1" data-name="Layer 1" xmlns="http://www.w3.org/2000/svg" viewBox="0 0 60 60"><title>icon-govnl-keys</title><path d="M59,55.26a2.6,2.6,0,0,0,.7-3.29l-9.2-17.23a2.6,2.6,0,0,0-2.32-1.38,2.92,2.92,0,0,0-.77.11,2.47,2.47,0,0,0-.42.17L58.64,55.49A1.77,1.77,0,0,0,59,55.26Z" fill="#bfc4c8"/><path d="M47,33.64l0,0a2.46,2.46,0,0,0-.32.19,2.64,2.64,0,0,0-.75,3.35l9.2,17.23a2.61,2.61,0,0,0,2.31,1.38,2.77,2.77,0,0,0,.8-.12,3.79,3.79,0,0,0,.42-.18l0,0Z" fill="#a7b1b7"/><path d="M41.62,23.59a27.12,27.12,0,0,0-4.28,2.91,1.57,1.57,0,0,1-2.15-.14,1.52,1.52,0,0,1,.29-2.19A29.49,29.49,0,0,1,40.21,21L39,18.63l-3.06,1.64a5.25,5.25,0,0,0-2.44,6.24,43.89,43.89,0,0,0,6,11.28A5.26,5.26,0,0,0,46,39.23L49.1,37.6Z" fill="#3289bf"/><path d="M45.44,18.85a1.53,1.53,0,0,1,2,1,1.57,1.57,0,0,1-1.08,1.86,27.14,27.14,0,0,0-4.72,1.9l7.48,14,3-1.6a5.25,5.25,0,0,0,2.45-6.24,44.23,44.23,0,0,0-6-11.28A5.26,5.26,0,0,0,42,17l-3,1.59L40.21,21A30.31,30.31,0,0,1,45.44,18.85Z" fill="#4193cf"/><path d="M48.62,36.7l-3.06,1.64a4.29,4.29,0,0,1-5.24-1.13,43.46,43.46,0,0,1-5.91-11.06,4.27,4.27,0,0,1,2-5l3.06-1.63-.48-.9-3.06,1.64a5.25,5.25,0,0,0-2.44,6.24,43.89,43.89,0,0,0,6,11.28A5.26,5.26,0,0,0,46,39.23L49.1,37.6Z" fill="#3289bf"/><path d="M42.43,17.93a4,4,0,0,1,1.91-.45,4.09,4.09,0,0,1,3.33,1.58,43.46,43.46,0,0,1,5.91,11.06,4.27,4.27,0,0,1-2,5l-3,1.59.48.9,3-1.6a5.25,5.25,0,0,0,2.45-6.24,44.23,44.23,0,0,0-6-11.28A5.26,5.26,0,0,0,42,17l-3,1.59.48.9Z" fill="#3289bf"/><path d="M28.46,21.72,23.07,19,8.28,48.56l5.4,2.7a5.21,5.21,0,0,0,7-2.32L30.79,28.7A5.21,5.21,0,0,0,28.46,21.72Zm-1.63,6.93a2.8,2.8,0,1,1,2.8-2.8A2.81,2.81,0,0,1,26.83,28.65Z" fill="#43494f"/><path d="M17.66,16.31a5.21,5.21,0,0,0-7,2.33L.55,38.87a5.21,5.21,0,0,0,2.32,7l5.41,2.71L23.07,19Z" fill="#3b4148"/><path d="M31.57,4.25A11.47,11.47,0,0,0,20.1,15.72a10.83,10.83,0,0,0,.16,1.9A11.43,11.43,0,0,0,29.38,27a2.82,2.82,0,0,0,.24-1.13,2.52,2.52,0,0,0,0-.48,9.65,9.65,0,0,1-4.15-1.95,9.76,9.76,0,0,1-3.29-4.86,9.52,9.52,0,0,1-.42-2.84,9.85,9.85,0,0,1,19.7,0,10.39,10.39,0,0,1-.14,1.68L42,17A5.06,5.06,0,0,1,43,16.63a9.1,9.1,0,0,0,0-.91A11.48,11.48,0,0,0,31.57,4.25ZM34.93,25a9.14,9.14,0,0,1-1.71.44,10,10,0,0,1-1.65.14h-.3a5,5,0,0,1,0,1.63h.3a12,12,0,0,0,3.82-.66A11.48,11.48,0,0,0,42.22,20a22.46,22.46,0,0,0-2.46,1.19A9.83,9.83,0,0,1,34.93,25Z" fill="#d4d8da"/></svg>