<svg id="Layer_1" data-name="Layer 1" xmlns="http://www.w3.org/2000/svg" viewBox="0 0 60 60"><title>gnl-icon-checkmark-circle-border</title><circle cx="30" cy="30" r="30" fill="#fff"/><path d="M30,4A26,26,0,1,0,56,30,26,26,0,0,0,30,4ZM23,41.15l-9.33-9.33a2.6,2.6,0,1,1,3.67-3.67l7.51,7.49L42.69,17.75a2.59,2.59,0,0,1,3.66,3.67L26.62,41.15A2.58,2.58,0,0,1,23,41.15Z" fill="#007b3f"/><path d="M23,41.15l-9.33-9.33a2.6,2.6,0,1,1,3.67-3.67l7.51,7.49L42.69,17.75a2.59,2.59,0,0,1,3.66,3.67L26.62,41.15A2.58,2.58,0,0,1,23,41.15Z" fill="#fff"/></svg>