<svg id="Layer_1" data-name="Layer 1" xmlns="http://www.w3.org/2000/svg" viewBox="0 0 60 60"><title>icon-govnl-vehicle-motorcycle</title><polygon points="13.45 22.94 17.59 25.45 19.66 17.91 15.52 17.91 13.45 22.94" fill="#3b4148"/><ellipse cx="10.78" cy="19.8" rx="2.67" ry="3.14" fill="#d4d8da"/><path d="M15.52,15.4H12.93a1.74,1.74,0,0,0-1.55,1.88v5a1.75,1.75,0,0,0,1.55,1.89h.52Z" fill="#e83e3d"/><polygon points="21.72 22.94 41.38 22.94 38.28 30.48 42.41 34.25 43.45 38.02 35.17 39.4 26.9 39.4 24.83 38.02 23.79 38.02 21.72 29.22 21.72 22.94" fill="#878f97"/><path d="M34.66,26.71H22.24a1.74,1.74,0,0,1-1.55-1.89h0a1.74,1.74,0,0,1,1.55-1.88H34.66a1.74,1.74,0,0,1,1.55,1.88h0A1.75,1.75,0,0,1,34.66,26.71Z" fill="#3b4148"/><path d="M17.63,20.09l-.91,5.6A2.89,2.89,0,0,0,17,27.57L22.18,37a2,2,0,0,0,1.62,1.11l1,.06V35.51L21.72,24.2Z" fill="#d12c2c"/><path d="M41.38,38.69a9.31,9.31,0,1,0,9.31-9.31A9.31,9.31,0,0,0,41.38,38.69Zm3.1,0a6.21,6.21,0,1,1,6.21,6.21A6.21,6.21,0,0,1,44.48,38.69Z" fill="#3b4148"/><circle cx="50.69" cy="38.69" r="4.14" fill="#bfc4c8"/><path d="M0,38.69a9.31,9.31,0,1,0,9.31-9.31A9.31,9.31,0,0,0,0,38.69Zm3.1,0A6.21,6.21,0,1,1,9.31,44.9,6.21,6.21,0,0,1,3.1,38.69Z" fill="#3b4148"/><circle cx="9.31" cy="38.69" r="4.14" fill="#bfc4c8"/><path d="M9.31,39.28a1.07,1.07,0,0,0,1-.84l6.87-23.88a.55.55,0,0,1,.49-.42h2a1.16,1.16,0,0,0,1-1.26,1.16,1.16,0,0,0-1-1.25h-2a2.67,2.67,0,0,0-2.44,2.1L8.33,37.61A1.35,1.35,0,0,0,9,39.21.83.83,0,0,0,9.31,39.28Z" fill="#5f6369"/><path d="M50.69,39.28a1,1,0,0,0,.94-.73,1.38,1.38,0,0,0-.51-1.67L37.67,29.34A1,1,0,0,0,36.3,30a1.38,1.38,0,0,0,.51,1.67l13.45,7.54A.85.85,0,0,0,50.69,39.28Z" fill="#5f6369"/><path d="M31,22.94,38.69,26A4.41,4.41,0,0,0,42,26l9-3.66a2.33,2.33,0,0,0,1.15-2.79h0a1.83,1.83,0,0,0-1.9-1.5L31,20.43Z" fill="#5f6369"/><path d="M17.63,20.09h0c-.3,2.15,1.07,4.11,2.86,4.11h9.63c1.6,0,2.65-2.06,1.93-3.81h0A2.27,2.27,0,0,0,30.44,19l-9.51-1.78C19.36,16.89,17.89,18.19,17.63,20.09Z" fill="#e83e3d"/></svg>