<svg id="Layer_1" data-name="Layer 1" xmlns="http://www.w3.org/2000/svg" viewBox="0 0 60 60"><title>icon-govnl-mcp-card</title><path d="M57.78,52H2.31A2.25,2.25,0,0,1,.09,49.73V11A2.24,2.24,0,0,1,2.31,8.74H57.78A2.24,2.24,0,0,1,60,11V49.73A2.25,2.25,0,0,1,57.78,52Z" fill="#dfe3e6"/><path d="M60,23.76V11a2.24,2.24,0,0,0-2.22-2.27H2.31A2.24,2.24,0,0,0,.09,11V23.76Z" fill="#105695"/><path d="M11,33.46H8.78a1.13,1.13,0,0,1-1.11-1.14h0a1.12,1.12,0,0,1,1.11-1.13H11a1.12,1.12,0,0,1,1.11,1.13h0A1.13,1.13,0,0,1,11,33.46Z" fill="#878f97"/><path d="M28.75,33.46H15.44a1.12,1.12,0,0,1-1.11-1.14h0a1.12,1.12,0,0,1,1.11-1.13H28.75a1.12,1.12,0,0,1,1.11,1.13h0A1.13,1.13,0,0,1,28.75,33.46Z" fill="#bfc4c8"/><path d="M11,38H8.78a1.12,1.12,0,0,1-1.11-1.13h0a1.12,1.12,0,0,1,1.11-1.13H11a1.12,1.12,0,0,1,1.11,1.13h0A1.12,1.12,0,0,1,11,38Z" fill="#878f97"/><path d="M32.08,38H15.44a1.11,1.11,0,0,1-1.11-1.13h0a1.11,1.11,0,0,1,1.11-1.13H32.08a1.12,1.12,0,0,1,1.11,1.13h0A1.12,1.12,0,0,1,32.08,38Z" fill="#bfc4c8"/><path d="M11,42.53H8.78a1.13,1.13,0,0,1-1.11-1.14h0a1.12,1.12,0,0,1,1.11-1.13H11a1.12,1.12,0,0,1,1.11,1.13h0A1.13,1.13,0,0,1,11,42.53Z" fill="#878f97"/><path d="M24.31,42.53H15.44a1.12,1.12,0,0,1-1.11-1.14h0a1.12,1.12,0,0,1,1.11-1.13h8.87a1.12,1.12,0,0,1,1.11,1.13h0A1.12,1.12,0,0,1,24.31,42.53Z" fill="#bfc4c8"/><path d="M35,11.78l-.93,3.15a20.06,20.06,0,0,1,1.37-2,4.59,4.59,0,0,1,1-1,1.67,1.67,0,0,1,.84-.23.79.79,0,0,1,.68.28,1,1,0,0,1,.22.63,4.44,4.44,0,0,1-.2,1.06l-.33,1.18A19.26,19.26,0,0,1,39.09,13a4.36,4.36,0,0,1,1.12-1,1.34,1.34,0,0,1,.7-.19.89.89,0,0,1,.91.94,4.38,4.38,0,0,1-.22,1.21l-.81,2.73a3.83,3.83,0,0,0-.18.79.17.17,0,0,0,0,.11.16.16,0,0,0,.11.05.24.24,0,0,0,.14-.05,3.56,3.56,0,0,0,.56-.62c0-.06.11-.15.19-.28l.25.17a3.82,3.82,0,0,1-1.11,1.38,2,2,0,0,1-1.11.44A1,1,0,0,1,39,18.4a.74.74,0,0,1-.27-.57,3.85,3.85,0,0,1,.18-.95L39.7,14a4.34,4.34,0,0,0,.17-.74.14.14,0,0,0-.06-.1.14.14,0,0,0-.1,0,.45.45,0,0,0-.19,0,2.2,2.2,0,0,0-.43.38,9.65,9.65,0,0,0-.83,1.1,10.65,10.65,0,0,0-.75,1.24,7.58,7.58,0,0,0-.41,1.16l-.45,1.51H34.8l1.37-4.78a2.62,2.62,0,0,0,.11-.54.12.12,0,0,0-.05-.09.16.16,0,0,0-.1-.05c-.18,0-.47.24-.86.71a12.86,12.86,0,0,0-1.62,2.65l-.6,2.1H31.18l1.38-4.71a4,4,0,0,0,.21-1,.32.32,0,0,0-.06-.2.34.34,0,0,0-.19-.13,1.51,1.51,0,0,0-.51,0l.08-.28,2.49-.43Z" fill="#fff"/><path d="M48.34,16.8l.22.2a5.41,5.41,0,0,1-1.4,1.25,3.74,3.74,0,0,1-1.89.52,2.36,2.36,0,0,1-1.17-.28,1.74,1.74,0,0,1-.75-.79,2.31,2.31,0,0,1-.25-1,4.78,4.78,0,0,1,.66-2.37,5,5,0,0,1,1.72-1.83,3.83,3.83,0,0,1,2.1-.68,1.88,1.88,0,0,1,1.25.36,1.25,1.25,0,0,1,.1,1.75.94.94,0,0,1-.7.34.77.77,0,0,1-.57-.22.73.73,0,0,1-.22-.52.85.85,0,0,1,.4-.69q.27-.2.27-.36a.28.28,0,0,0-.11-.21.59.59,0,0,0-.38-.11,1.69,1.69,0,0,0-1.16.49,4.24,4.24,0,0,0-1.1,1.67A5.59,5.59,0,0,0,45,16.2a1.65,1.65,0,0,0,.39,1.15,1.18,1.18,0,0,0,.92.43,2.59,2.59,0,0,0,1-.24A3.47,3.47,0,0,0,48.34,16.8Z" fill="#fff"/><path d="M50.28,12.19l2.42-.41h.44L52.81,13a6.2,6.2,0,0,1,1.26-1,2.21,2.21,0,0,1,1-.24,1.23,1.23,0,0,1,1.06.53,2.19,2.19,0,0,1,.37,1.3A5.41,5.41,0,0,1,55,17.34a3.73,3.73,0,0,1-2.81,1.43,1.58,1.58,0,0,1-.46-.05,3,3,0,0,1-.54-.22l-.38,1.31a4.69,4.69,0,0,0-.2,1.1.46.46,0,0,0,.16.37,1.92,1.92,0,0,0,.75.23l-.06.27H47.54l.07-.27a1.18,1.18,0,0,0,.78-.3A2.78,2.78,0,0,0,49,20l1.79-6.17a4.19,4.19,0,0,0,.2-1,.37.37,0,0,0-.06-.21.41.41,0,0,0-.18-.12,2.37,2.37,0,0,0-.52,0Zm1.14,5.63a1.68,1.68,0,0,0,.4.47.63.63,0,0,0,.41.13,1,1,0,0,0,.45-.13,2.48,2.48,0,0,0,.56-.52,4.8,4.8,0,0,0,.63-1,6.2,6.2,0,0,0,.49-1.38,6.42,6.42,0,0,0,.18-1.47,1.35,1.35,0,0,0-.2-.82.62.62,0,0,0-.49-.26.91.91,0,0,0-.48.13,3.6,3.6,0,0,0-.78.71Z" fill="#fff"/></svg>