<svg width="20" height="19" viewBox="0 0 20 19" fill="none" xmlns="http://www.w3.org/2000/svg">
<path d="M10.6 12.4C10.3 13 10.4 13.8 11 14.2C10.5 14.6 10.3 15.4 10.7 16L11.2 16.9H1.19995V14.9C1.19995 12.2 6.49995 10.9 9.19995 10.9C9.79995 10.9 10.5 11 11.3 11.1L10.6 12.4ZM9.19995 8.90002C11.4 8.90002 13.2 7.10002 13.2 4.90002C13.2 2.70002 11.4 0.900024 9.19995 0.900024C6.99995 0.900024 5.19995 2.70002 5.19995 4.90002C5.19995 7.10002 6.99995 8.90002 9.19995 8.90002ZM18.9 14.9C19.1 15.1 19.1 15.3 19 15.5L18.2999 16.8C18.1999 17 17.9999 17.1 17.7999 17L17.2999 16.8L17 16.7L16.6 16.9H16.5L16.4 17.8C16.4 18 16.2 18.2 16 18.2H14.5C14.3 18.2 14.1 18 14.1 17.8L14 17.2V17H13.9L13.6 16.8L13 16.9L12.7 17C12.6 17 12.4 17 12.2 16.9C12.2 16.9 12.2 16.8 12.1 16.8L11.4 15.5C11.3 15.3 11.3 15.1 11.5 14.9L12 14.5L12.2 14.3V13.8L11.6 13.3C11.4 13.2 11.4 12.9 11.5 12.7L12.2 11.4C12.3 11.2 12.5 11.2 12.7 11.2C12.7 11.2 12.7 11.2 12.8 11.2L13.6 11.5H13.7L14.1 11.3L14.2 10.5C14.2 10.3 14.4 10.1 14.6 10.1H16C16.2 10.1 16.4 10.2 16.4 10.5L16.5 11.1L16.6 11.4L17 11.6L17.7999 11.3C17.8999 11.3 18.1999 11.3 18.2999 11.5L19 12.8C19.1 13 19.1 13.2 18.9 13.3L18.4 13.7L18.2 13.9V14.4L18.9 14.9ZM16.4 14.2C16.4 13.6 15.9 13.1 15.3 13.1C14.7 13.1 14.2 13.6 14.2 14.2C14.2 14.8 14.7 15.3 15.3 15.3C15.9 15.3 16.4 14.8 16.4 14.2Z" fill="#20354E"/>
</svg>
