<svg width="20" height="20" viewBox="0 0 20 20" fill="none" xmlns="http://www.w3.org/2000/svg">
<path fill-rule="evenodd" clip-rule="evenodd" d="M3.9 3.9V9.4333H7.76667V3.9H3.9ZM2.5 3.5C2.5 2.94771 2.94771 2.5 3.5 2.5H8.16667C8.71893 2.5 9.16667 2.94769 9.16667 3.5V9.83333C9.16667 10.3857 8.71884 10.8333 8.16667 10.8333H3.5C2.9478 10.8333 2.5 10.3857 2.5 9.83333V3.5ZM12.2333 3.9V6.1H16.1V3.9H12.2333ZM10.8333 3.5C10.8333 2.94773 11.281 2.5 11.8333 2.5H16.5C17.0523 2.5 17.5 2.94773 17.5 3.5V6.5C17.5 7.05227 17.0523 7.5 16.5 7.5H11.8333C11.281 7.5 10.8333 7.05227 10.8333 6.5V3.5ZM12.2333 10.5667V16.1H16.1V10.5667H12.2333ZM10.8333 10.1667C10.8333 9.6145 11.2809 9.16667 11.8333 9.16667H16.5C17.0524 9.16667 17.5 9.6145 17.5 10.1667V16.5C17.5 17.0523 17.0523 17.5 16.5 17.5H11.8333C11.281 17.5 10.8333 17.0523 10.8333 16.5V10.1667ZM3.9 13.9V16.1H7.76667V13.9H3.9ZM2.5 13.5C2.5 12.9477 2.94773 12.5 3.5 12.5H8.16667C8.71892 12.5 9.16667 12.9477 9.16667 13.5V16.5C9.16667 17.0523 8.71892 17.5 8.16667 17.5H3.5C2.94773 17.5 2.5 17.0523 2.5 16.5V13.5Z" fill="#20354E"/>
</svg>
